<?xml version="1.0" encoding="UTF-8"?>
<svg id="Layer_2" data-name="Layer 2" xmlns="http://www.w3.org/2000/svg" viewBox="0 0 798.91 175.79">
  <defs>
    <style>
      .cls-1 {
        fill: #ff4ecf;
      }
    </style>
  </defs>
  <g id="Layer_1-2" data-name="Layer 1">
    <g>
      <g>
        <path class="cls-1" d="M84.6,15.31l-9.02,24.87c-1.76-1.32-3.86-2.35-6.28-3.09-2.41-.73-4.95-1.1-7.59-1.1-4.99,0-8.85,1.43-11.55,4.29-2.72,2.87-4.08,7.16-4.08,12.89v5.05h-14.3v26.42h15.19v65.15c0,13.38-10.85,24.23-24.23,24.23H1.34c-1.35,0-1.85-1.76-.7-2.47,7.19-4.46,11.98-12.43,11.98-21.52V52.95c0-13.35,3.96-24.02,11.88-32.02,7.93-8,19.23-12,33.9-12,4.99,0,9.8.51,14.42,1.54,4.62,1.04,8.55,2.64,11.77,4.85Z"/>
        <path class="cls-1" d="M31.78,58.23v26.42h44.68v-26.42H31.78ZM46.07,64.19v-5.95h-14.3v26.42h15.19v-5.73l-.89-14.74Z"/>
      </g>
      <path class="cls-1" d="M138.1,175.79c-11.15,0-21.21-2.53-30.16-7.59-8.95-5.06-16.04-12.14-21.24-21.24-5.21-9.1-7.81-19.81-7.81-32.14s2.6-23.26,7.81-32.36c5.21-9.1,12.29-16.14,21.24-21.13,8.95-4.99,19-7.48,30.16-7.48,9.98,0,18.71,2.2,26.2,6.6,7.48,4.4,13.28,11.08,17.39,20.03,4.11,8.95,6.16,20.4,6.16,34.34s-1.98,25.2-5.94,34.23c-3.96,9.02-9.65,15.74-17.06,20.14-7.41,4.4-16.33,6.6-26.75,6.6ZM144.04,147.61c5.58,0,10.64-1.32,15.19-3.96,4.55-2.64,8.18-6.42,10.9-11.34,2.71-4.91,4.07-10.75,4.07-17.5s-1.36-12.77-4.07-17.61c-2.72-4.84-6.35-8.58-10.9-11.23-4.55-2.64-9.61-3.96-15.19-3.96s-10.86,1.32-15.41,3.96c-4.55,2.64-8.18,6.38-10.9,11.23-2.72,4.84-4.07,10.71-4.07,17.61s1.36,12.58,4.07,17.5c2.71,4.92,6.35,8.7,10.9,11.34,4.55,2.64,9.69,3.96,15.41,3.96ZM199.29,174.03c-13.37,0-24.21-10.84-24.21-24.21h0s.66-35.22.66-35.22l-2.2-35v-23.99h34.34v118.43h-8.58Z"/>
      <path class="cls-1" d="M224.16,174.03V55.6h32.8v32.8l-6.16-9.91c4.25-7.92,10.35-14.01,18.27-18.27,7.92-4.26,16.95-6.38,27.08-6.38,9.39,0,17.79,1.87,25.2,5.61,7.41,3.74,13.24,9.47,17.5,17.17,4.25,7.7,6.38,17.58,6.38,29.61v67.8h-34.34v-62.52c0-9.54-2.09-16.58-6.27-21.13-4.18-4.55-10.09-6.82-17.72-6.82-5.43,0-10.31,1.14-14.64,3.41-4.33,2.28-7.7,5.76-10.13,10.46-2.42,4.7-3.63,10.71-3.63,18.05v58.55h-34.34Z"/>
      <path class="cls-1" d="M360.86,174.03V10.69h34.34v68.9l-2.2,35,.66,35.22h0c0,13.37-10.84,24.21-24.21,24.21h-8.59ZM430.86,175.79c-10.42,0-19.37-2.2-26.86-6.6-7.48-4.4-13.21-11.12-17.17-20.14-3.96-9.02-5.94-20.43-5.94-34.23s2.09-25.39,6.27-34.34c4.18-8.95,10.02-15.63,17.5-20.03,7.48-4.4,16.21-6.6,26.2-6.6,11.15,0,21.17,2.5,30.05,7.48,8.88,4.99,15.92,12.03,21.13,21.13,5.21,9.1,7.81,19.89,7.81,32.36s-2.61,23.04-7.81,32.14c-5.21,9.1-12.26,16.18-21.13,21.24-8.88,5.06-18.9,7.59-30.05,7.59ZM424.92,147.61c5.72,0,10.82-1.32,15.3-3.96,4.47-2.64,8.07-6.42,10.79-11.34,2.71-4.91,4.07-10.75,4.07-17.5s-1.36-12.77-4.07-17.61c-2.72-4.84-6.31-8.58-10.79-11.23-4.48-2.64-9.58-3.96-15.3-3.96s-10.86,1.32-15.41,3.96c-4.55,2.64-8.15,6.38-10.79,11.23-2.64,4.84-3.96,10.71-3.96,17.61s1.32,12.58,3.96,17.5c2.64,4.92,6.24,8.7,10.79,11.34,4.55,2.64,9.69,3.96,15.41,3.96Z"/>
      <g>
        <path class="cls-1" d="M522.89,4.19l-3.98,3.98-3.98-3.98c-5.59-5.59-14.65-5.59-20.25,0s-5.59,14.65,0,20.25l3.98,3.98,20.25,20.25,20.25-20.25,3.98-3.98c5.59-5.59,5.59-14.65,0-20.25h0c-5.59-5.59-14.65-5.59-20.25,0Z"/>
        <rect class="cls-1" x="501.74" y="55.6" width="34.34" height="118.43"/>
      </g>
      <g>
        <path class="cls-1" d="M652.53,80.47c-4.11-8.95-9.92-15.62-17.39-20.02-7.48-4.41-16.22-6.6-26.19-6.6-11.16,0-21.21,2.49-30.16,7.48-8.96,5-16.04,12.03-21.24,21.13-5.21,9.11-7.82,19.89-7.82,32.36s2.61,23.04,7.82,32.14c5.2,9.11,12.28,16.18,21.24,21.24,8.95,5.07,19,7.59,30.16,7.59,10.42,0,19.33-2.2,26.74-6.6,7.41-4.41,13.1-11.11,17.06-20.14,3.96-9.03,5.94-20.43,5.94-34.23s-2.06-25.39-6.16-34.35ZM640.97,132.31c-2.71,4.92-6.34,8.7-10.89,11.34-4.55,2.64-9.61,3.96-15.19,3.96s-10.86-1.32-15.41-3.96c-4.54-2.64-8.17-6.42-10.89-11.34-2.71-4.92-4.08-10.75-4.08-17.5s1.37-12.77,4.08-17.61c2.72-4.84,6.35-8.58,10.89-11.22,4.55-2.64,9.69-3.96,15.41-3.96s10.63,1.32,15.19,3.96c4.55,2.64,8.19,6.39,10.89,11.22,2.72,4.84,4.08,10.71,4.08,17.61s-1.35,12.58-4.08,17.5Z"/>
        <path class="cls-1" d="M690.01,174.03h-19.86c-13.38,0-24.23-10.85-24.23-24.23h0s.66-35.21.66-35.21l-2.2-35.01V10.69h34.35v139.35c0,9.09,4.79,17.06,11.98,21.52,1.14.71.64,2.47-.7,2.47Z"/>
      </g>
      <path class="cls-1" d="M743,175.79c-10.13,0-19.85-1.21-29.17-3.63-9.32-2.42-16.69-5.47-22.12-9.13l11.45-24.65c5.43,3.38,11.85,6.13,19.26,8.25,7.41,2.13,14.71,3.19,21.9,3.19,7.93,0,13.54-.95,16.84-2.86,3.3-1.91,4.95-4.55,4.95-7.92,0-2.79-1.29-4.88-3.85-6.27-2.57-1.39-5.98-2.46-10.24-3.19-4.26-.73-8.92-1.47-13.98-2.2-5.06-.73-10.16-1.72-15.3-2.97-5.14-1.25-9.83-3.12-14.09-5.61-4.26-2.49-7.67-5.87-10.24-10.13-2.57-4.26-3.85-9.76-3.85-16.51,0-7.48,2.16-14.09,6.49-19.81,4.33-5.72,10.6-10.24,18.82-13.54,8.22-3.3,18.05-4.95,29.5-4.95,8.07,0,16.29.88,24.65,2.64,8.37,1.76,15.33,4.33,20.91,7.7l-11.45,24.43c-5.72-3.37-11.49-5.69-17.28-6.93-5.8-1.25-11.41-1.87-16.84-1.87-7.63,0-13.21,1.03-16.73,3.08-3.52,2.06-5.28,4.7-5.28,7.92,0,2.94,1.28,5.14,3.85,6.6,2.57,1.47,5.98,2.64,10.24,3.52,4.25.88,8.92,1.65,13.98,2.31s10.16,1.65,15.3,2.97c5.14,1.32,9.8,3.19,13.98,5.61,4.18,2.42,7.59,5.72,10.24,9.91s3.96,9.65,3.96,16.4c0,7.34-2.2,13.83-6.6,19.48-4.4,5.65-10.75,10.09-19.04,13.32-8.29,3.23-18.38,4.84-30.27,4.84Z"/>
    </g>
  </g>
</svg>